<svg width="current" height="current" viewBox="0 0 600 600" fill="none" xmlns="http://www.w3.org/2000/svg">
<path d="M340.532 286H301.243C292.844 286 285.01 290.227 280.399 297.246L278.353 300.361C268.961 314.658 262.612 330.735 259.699 347.592L223 560H445.5L418 367.5C413.34 331.391 395.348 308.383 378.814 295.922C367.995 287.769 354.08 286 340.532 286Z" fill="url(#paint0_linear_475_1244)"/>
<path fill-rule="evenodd" clip-rule="evenodd" d="M219.335 153.392C220.836 170.147 222.783 199.629 221.808 219.312C221.611 223.278 222.076 227.311 224.317 230.589C235.886 247.513 271.508 275.211 288.094 275.211C290.981 275.211 294.598 274.828 298.693 274.107V293.216C298.693 304.533 311.625 310.981 320.663 304.171L344.206 286.434L345.905 257.549C351.194 254.666 355.98 251.528 359.847 248.211C360.637 247.533 361.588 247.095 362.619 246.947C373.548 245.379 394.145 239.995 400.318 229.075C406.802 217.603 424.217 187.719 432.114 174.21L377.873 123.71L303.681 59.4934L233.23 98.7715L220.21 144.059C219.338 147.091 219.054 150.249 219.335 153.392Z" fill="url(#paint1_linear_475_1244)"/>
<path d="M281.561 137.299C261.23 167.342 233.542 167.134 221.384 166.729C207.044 134.932 218.267 43.828 309.292 40.1661C417.774 35.8018 444.583 118.722 444.583 140.543C444.583 162.365 438.349 212.242 410.293 234.063C387.848 251.52 355.891 258.123 345.5 257.5C348.787 254.512 353.639 249.973 357.314 246.323C360.603 243.055 365.041 240.825 369.5 239.553C382.868 235.739 394.027 225.651 398.447 220.347C411.914 204.885 406.968 189.381 402.811 183.562C388.082 170.516 374.98 176.97 366.501 184.05C363.71 186.38 360.185 187.807 356.578 187.342C316.121 182.124 290.628 155.591 283.973 137.598C283.597 136.583 282.167 136.402 281.561 137.299Z" fill="black"/>
<rect x="246.323" y="189.797" width="17.4569" height="23.6915" rx="8.72847" fill="black"/>
<rect x="304.928" y="201.019" width="17.4569" height="23.6915" rx="8.72847" fill="black"/>
<path d="M264.54 406.762H212.649C206.258 406.762 201.516 412.686 202.915 418.922L225.303 518.675C226.325 523.23 230.369 526.466 235.037 526.466H286.307C292.673 526.466 297.41 520.584 296.053 514.364L274.287 414.611C273.287 410.029 269.23 406.762 264.54 406.762Z" fill="url(#paint2_linear_475_1244)"/>
<g opacity="0.32">
<mask id="mask0_475_1244" style="mask-type:alpha" maskUnits="userSpaceOnUse" x="202" y="406" width="95" height="121">
<path d="M264.54 406.762H212.649C206.258 406.762 201.516 412.686 202.915 418.922L225.303 518.675C226.325 523.23 230.369 526.466 235.037 526.466H286.307C292.673 526.466 297.41 520.584 296.053 514.364L274.287 414.611C273.287 410.029 269.23 406.762 264.54 406.762Z" fill="#3B71F0"/>
</mask>
<g mask="url(#mask0_475_1244)">
<path d="M292.567 531.589L265.915 413.954C264.502 407.713 269.246 401.774 275.644 401.774H290.755C295.68 401.774 299.868 405.368 300.615 410.236L316.962 516.769C317.246 518.624 317.002 520.522 316.256 522.244L311.451 533.347C307.618 542.201 294.699 540.998 292.567 531.589Z" fill="url(#paint3_linear_475_1244)"/>
</g>
</g>
<path d="M193.952 507.762C193.952 499.499 200.651 492.799 208.915 492.799H235.1C257.137 492.799 275.002 510.664 275.002 532.701V560.133H208.915C200.651 560.133 193.952 553.434 193.952 545.17V507.762Z" fill="url(#paint4_linear_475_1244)"/>
<path d="M279.989 246.532C284.146 250.48 295.077 255.385 305.551 243.415" stroke="black" stroke-width="5" stroke-linecap="round"/>
<path fill-rule="evenodd" clip-rule="evenodd" d="M97.9385 294.539C84.1653 294.539 73 305.704 73 319.477V351.897C73 365.67 84.1653 376.836 97.9385 376.836H206.58L231.665 393.957C234.976 396.216 239.464 393.845 239.464 389.837V376.836H242.582C256.355 376.836 267.52 365.67 267.52 351.897V319.477C267.52 305.704 256.355 294.539 242.582 294.539H97.9385Z" fill="url(#paint5_linear_475_1244)"/>
<circle cx="131.606" cy="338.181" r="9.97539" fill="#6C97FF"/>
<circle cx="172.754" cy="338.181" r="9.97539" fill="#6C97FF"/>
<circle cx="213.902" cy="338.181" r="9.97539" fill="#6C97FF"/>
<defs>
<linearGradient id="paint0_linear_475_1244" x1="345.145" y1="72.1757" x2="337.043" y2="560.001" gradientUnits="userSpaceOnUse">
<stop/>
<stop offset="1" stop-color="#24468F"/>
</linearGradient>
<linearGradient id="paint1_linear_475_1244" x1="193.5" y1="47.5" x2="325.672" y2="306.957" gradientUnits="userSpaceOnUse">
<stop stop-color="#F6C6B0"/>
<stop offset="1" stop-color="#FAC8C7"/>
</linearGradient>
<linearGradient id="paint2_linear_475_1244" x1="249.44" y1="406.762" x2="249.44" y2="526.466" gradientUnits="userSpaceOnUse">
<stop stop-color="#3B71F0"/>
<stop offset="1" stop-color="#5F8DF9"/>
</linearGradient>
<linearGradient id="paint3_linear_475_1244" x1="290.277" y1="401.774" x2="290.277" y2="561.38" gradientUnits="userSpaceOnUse">
<stop stop-color="#A2BDFF"/>
<stop offset="1" stop-color="#DBE5FF"/>
</linearGradient>
<linearGradient id="paint4_linear_475_1244" x1="194" y1="445" x2="234.477" y2="560.133" gradientUnits="userSpaceOnUse">
<stop stop-color="#F6C6B0"/>
<stop offset="1" stop-color="#FAC8C7"/>
</linearGradient>
<linearGradient id="paint5_linear_475_1244" x1="170" y1="259" x2="170" y2="518" gradientUnits="userSpaceOnUse">
<stop stop-color="#BED1FF"/>
<stop offset="0.991087" stop-color="#E9F0FF"/>
</linearGradient>
</defs>
</svg>
