<svg width="41" height="42" viewBox="0 0 41 42" fill="none" xmlns="http://www.w3.org/2000/svg">
<g id="Logo">
<rect x="0.0482178" y="0.604126" width="40.9036" height="40.9036" rx="6.67813" fill="#3B71F0"/>
<g id="Group 14">
<path id="Vector 25" d="M6.08012 30.148C5.03902 30.2743 4.29749 31.2208 4.42388 32.2619C4.55026 33.303 5.49669 34.0445 6.5378 33.9181L6.08012 30.148ZM19.7257 19.124L21.6245 19.1474L19.7257 19.124ZM6.5378 33.9181C9.38884 33.572 13.052 32.3106 16.0584 29.9657C19.1064 27.5882 21.5647 24.0142 21.6245 19.1474L17.8269 19.1007C17.7844 22.5588 16.0831 25.1299 13.7226 26.9711C11.3206 28.8446 8.32654 29.8753 6.08012 30.148L6.5378 33.9181ZM21.6245 19.1474C21.6598 16.2718 21.0228 13.9222 19.8518 12.238C18.6677 10.535 16.92 9.52099 14.998 9.5581C11.0249 9.63482 8.40318 13.7505 8.5412 19.1724L12.3378 19.0757C12.2203 14.4575 14.3056 13.37 15.0713 13.3552C15.5188 13.3466 16.1486 13.5647 16.7336 14.4061C17.3317 15.2663 17.8555 16.7732 17.8269 19.1007L21.6245 19.1474ZM8.5412 19.1724C8.60347 21.6186 9.58519 24.2262 10.9725 26.4724C12.3665 28.7294 14.2865 30.8118 16.442 32.1343C18.5868 33.4503 21.2381 34.1577 23.7984 33.0458C26.325 31.9485 28.1577 29.3352 29.2938 25.4257L25.6468 24.3659C24.6542 27.7815 23.3193 29.1133 22.2855 29.5622C21.2853 29.9966 19.9833 29.8514 18.4282 28.8972C16.8837 27.9496 15.357 26.3441 14.2038 24.4768C13.0439 22.5987 12.3778 20.6456 12.3378 19.0757L8.5412 19.1724Z" fill="white"/>
<path id="Polygon 2" d="M28.8145 18.7378C29.3346 18.3437 30.0881 18.5973 30.2643 19.2255L32.187 26.0845C32.3876 26.8001 31.7054 27.4482 31.0011 27.2113L23.4006 24.6543C22.6963 24.4173 22.5446 23.4886 23.1369 23.0398L28.8145 18.7378Z" fill="white"/>
</g>
<circle id="Ellipse 14" cx="31.6024" cy="11.4562" r="3.50602" fill="white"/>
</g>
</svg>
