<svg width="104" height="36" viewBox="0 0 104 36" fill="none" xmlns="http://www.w3.org/2000/svg">
<path d="M5.74178 22.1448H18.4232V27.6522H0.1982L0.1982 0.187923H5.74178L5.74178 22.1448ZM28.3447 22.6159C29.2384 22.6159 30.0476 22.4105 30.7722 21.9999C31.4969 21.5893 32.0645 21.0216 32.4752 20.297C32.8858 19.5723 33.0911 18.7631 33.0911 17.8694C33.0911 16.9757 32.8858 16.1665 32.4752 15.4418C32.0645 14.7172 31.4969 14.1495 30.7722 13.7389C30.0476 13.3041 29.2384 13.0867 28.3447 13.0867C27.4509 13.0867 26.6417 13.3041 25.9171 13.7389C25.1924 14.1495 24.6248 14.7172 24.2141 15.4418C23.8035 16.1665 23.5982 16.9757 23.5982 17.8694C23.5982 18.7631 23.8035 19.5723 24.2141 20.297C24.6248 21.0216 25.1924 21.5893 25.9171 21.9999C26.6417 22.4105 27.4509 22.6159 28.3447 22.6159ZM28.3447 7.94169C30.2771 7.94169 31.9679 8.38855 33.4172 9.28229C34.8907 10.176 36.026 11.3838 36.8231 12.9055C37.6202 14.4032 38.0187 16.0578 38.0187 17.8694C38.0187 19.6569 37.6202 21.3115 36.8231 22.8333C36.026 24.3309 34.8907 25.5265 33.4172 26.4203C31.9679 27.314 30.2771 27.7609 28.3447 27.7609C26.5089 27.7609 24.8543 27.314 23.3808 26.4203C21.9073 25.5265 20.7479 24.3188 19.9025 22.797C19.0812 21.2753 18.6706 19.6327 18.6706 17.8694C18.6706 16.0819 19.0812 14.4394 19.9025 12.9418C20.7479 11.42 21.9073 10.2123 23.3808 9.31852C24.8543 8.40063 26.5089 7.94169 28.3447 7.94169ZM49.7346 22.6159C50.6283 22.6159 51.4375 22.4105 52.1622 21.9999C52.8868 21.5893 53.4545 21.0216 53.8651 20.297C54.2757 19.5723 54.4811 18.7631 54.4811 17.8694C54.4811 16.9757 54.2757 16.1665 53.8651 15.4418C53.4545 14.7172 52.8868 14.1495 52.1622 13.7389C51.4375 13.3041 50.6283 13.0867 49.7346 13.0867C48.8409 13.0867 48.0317 13.3041 47.307 13.7389C46.5824 14.1495 46.0147 14.7172 45.6041 15.4418C45.1934 16.1665 44.9881 16.9757 44.9881 17.8694C44.9881 18.7631 45.1934 19.5723 45.6041 20.297C46.0147 21.0216 46.5824 21.5893 47.307 21.9999C48.0317 22.4105 48.8409 22.6159 49.7346 22.6159ZM49.7346 7.94169C51.667 7.94169 53.3578 8.38855 54.8071 9.28229C56.2806 10.176 57.4159 11.3838 58.213 12.9055C59.0101 14.4032 59.4087 16.0578 59.4087 17.8694C59.4087 19.6569 59.0101 21.3115 58.213 22.8333C57.4159 24.3309 56.2806 25.5265 54.8071 26.4203C53.3578 27.314 51.667 27.7609 49.7346 27.7609C47.8988 27.7609 46.2442 27.314 44.7707 26.4203C43.2973 25.5265 42.1378 24.3188 41.2924 22.797C40.4711 21.2753 40.0605 19.6327 40.0605 17.8694C40.0605 16.0819 40.4711 14.4394 41.2924 12.9418C42.1378 11.42 43.2973 10.2123 44.7707 9.31852C46.2442 8.40063 47.8988 7.94169 49.7346 7.94169ZM72.3649 22.7608C73.2828 22.7608 74.092 22.5434 74.7925 22.1086C75.493 21.6497 76.0365 21.0458 76.423 20.297C76.8094 19.524 77.0027 18.6665 77.0027 17.7245C77.0027 16.7824 76.8094 15.937 76.423 15.1882C76.0365 14.4152 75.493 13.8114 74.7925 13.3766C74.092 12.9418 73.2828 12.7244 72.3649 12.7244C71.5678 12.7244 70.8069 12.9539 70.0823 13.4128C69.3818 13.8476 68.8141 14.4515 68.3793 15.2244C67.9687 15.9732 67.7634 16.8066 67.7634 17.7245C67.7634 18.6424 67.9687 19.4878 68.3793 20.2607C68.8141 21.0337 69.3818 21.6497 70.0823 22.1086C70.8069 22.5434 71.5678 22.7608 72.3649 22.7608ZM72.8722 7.83299C74.6838 7.83299 76.3022 8.27986 77.7273 9.17359C79.1525 10.0673 80.2515 11.2751 81.0245 12.7968C81.8216 14.2945 82.2202 15.937 82.2202 17.7245C82.2202 19.5119 81.8216 21.1666 81.0245 22.6883C80.2515 24.2101 79.1525 25.4178 77.7273 26.3116C76.3022 27.2053 74.6838 27.6522 72.8722 27.6522C72.0509 27.6522 71.0968 27.4952 70.0098 27.1812C68.9228 26.8671 68.0774 26.2029 67.4735 25.1884V35.6958H62.0024V7.83299H67.4735V10.2243C68.1016 9.35475 68.9832 8.7388 70.1185 8.37648C71.2538 8.01415 72.1717 7.83299 72.8722 7.83299ZM85.6034 35.6958L91.0383 22.8695L96.3282 25.1159L91.8354 35.6958H85.6034ZM90.0962 25.1159L97.5601 7.90545H103.792L96.3282 25.1159H90.0962ZM90.2412 25.5869L82.0888 7.90545H88.3933L95.4586 24.0289L90.2412 25.5869Z" fill="#3B71F0"/>
</svg>
